<svg width="24" height="248" viewBox="0 0 24 248" fill="none" xmlns="http://www.w3.org/2000/svg">
<path d="M12 17.99V14.99M9.02 2.84001L3.63 7.04001C2.73 7.74001 2 9.23001 2 10.36V17.77C2 20.09 3.89 21.99 6.21 21.99H17.79C20.11 21.99 22 20.09 22 17.78V10.5C22 9.29001 21.19 7.74001 20.2 7.05001L14.02 2.72001C12.62 1.74001 10.37 1.79001 9.02 2.84001Z" stroke="black" stroke-width="1.5" stroke-linecap="round" stroke-linejoin="round"/>
<path d="M17 58H7C4.24 58 2 60.23 2 62.98V69.96C2 72.71 4.24 74.94 7 74.94H8.5C8.77 74.94 9.13 75.12 9.3 75.34L10.8 77.33C11.46 78.21 12.54 78.21 13.2 77.33L14.7 75.34C14.89 75.09 15.19 74.94 15.5 74.94H17C19.76 74.94 22 72.71 22 69.96V62.98C22 60.23 19.76 58 17 58ZM8 68C7.44 68 7 67.55 7 67C7 66.45 7.45 66 8 66C8.55 66 9 66.45 9 67C9 67.55 8.56 68 8 68ZM12 68C11.44 68 11 67.55 11 67C11 66.45 11.45 66 12 66C12.55 66 13 66.45 13 67C13 67.55 12.56 68 12 68ZM16 68C15.44 68 15 67.55 15 67C15 66.45 15.45 66 16 66C16.55 66 17 66.45 17 67C17 67.55 16.56 68 16 68Z" fill="#615EF0"/>
<path d="M7 122.74V125.94M12 121V127.68M17 122.74V125.94M9 134H15C20 134 22 132 22 127V121C22 116 20 114 15 114H9C4 114 2 116 2 121V127C2 132 4 134 9 134Z" stroke="black" stroke-width="1.5" stroke-linecap="round" stroke-linejoin="round"/>
<path d="M22 190L20 188M11.5 189C12.7476 189 13.9829 188.754 15.1355 188.277C16.2881 187.799 17.3354 187.1 18.2175 186.218C19.0997 185.335 19.7994 184.288 20.2769 183.135C20.7543 181.983 21 180.748 21 179.5C21 178.252 20.7543 177.017 20.2769 175.865C19.7994 174.712 19.0997 173.665 18.2175 172.782C17.3354 171.9 16.2881 171.201 15.1355 170.723C13.9829 170.246 12.7476 170 11.5 170C8.98044 170 6.56408 171.001 4.78249 172.782C3.00089 174.564 2 176.98 2 179.5C2 182.02 3.00089 184.436 4.78249 186.218C6.56408 187.999 8.98044 189 11.5 189V189Z" stroke="black" stroke-width="1.5" stroke-linecap="round" stroke-linejoin="round"/>
<path d="M8 226V229M16 226V229M3.5 233.09H20.5M21 232.5V241C21 244 19.5 246 16 246H8C4.5 246 3 244 3 241V232.5C3 229.5 4.5 227.5 8 227.5H16C19.5 227.5 21 229.5 21 232.5Z" stroke="black" stroke-width="1.5" stroke-miterlimit="10" stroke-linecap="round" stroke-linejoin="round"/>
<path d="M11.995 237.7H12.005M8.29401 237.7H8.30401M8.29401 240.7H8.30401" stroke="black" stroke-width="2" stroke-linecap="round" stroke-linejoin="round"/>
</svg>
